<svg width="120" height="120" viewBox="0 0 120 120" fill="none" xmlns="http://www.w3.org/2000/svg">
<path d="M81.1855 63.816L72.7855 48.882L71.8255 49.422C71.6264 49.5443 71.3989 49.6125 71.1655 49.62C70.9415 49.618 70.722 49.5578 70.5284 49.4452C70.3349 49.3327 70.1739 49.1717 70.0615 48.978C69.8968 48.6866 69.8542 48.3419 69.943 48.0192C70.0319 47.6965 70.2449 47.4221 70.5355 47.256L71.5375 46.692L66.8155 38.34C65.7348 36.4338 64.0022 34.9818 61.9364 34.2509C59.8707 33.5201 57.6105 33.5595 55.5715 34.362L56.0575 35.232C56.2187 35.5258 56.2588 35.8709 56.1691 36.1937C56.0795 36.5166 55.8671 36.7916 55.5775 36.96L48.5995 40.872C48.4568 40.9536 48.2994 41.0059 48.1363 41.0259C47.9732 41.0459 47.8078 41.0331 47.6497 40.9885C47.4916 40.9438 47.344 40.868 47.2155 40.7656C47.0871 40.6632 46.9803 40.5362 46.9015 40.392L46.3735 39.456C44.4503 40.7217 43.0799 42.6708 42.5397 44.9088C41.9994 47.1467 42.3296 49.5064 43.4635 51.51L48.1075 59.736L49.1455 59.136C49.4108 58.9707 49.7283 58.9104 50.0357 58.967C50.3432 59.0236 50.6184 59.193 50.8075 59.442L48.3595 55.104L47.6395 55.512C47.3467 55.6775 47.0001 55.7199 46.676 55.6299C46.352 55.5399 46.077 55.3248 45.9115 55.032C45.746 54.7392 45.7036 54.3927 45.7936 54.0686C45.8836 53.7446 46.0987 53.4695 46.3915 53.304L47.1115 52.896L45.6355 50.28C44.7884 48.7616 44.5748 46.9701 45.041 45.2951C45.5073 43.62 46.6157 42.1965 48.1255 41.334L55.6015 37.134C56.351 36.7054 57.1778 36.4291 58.0345 36.3211C58.8911 36.2131 59.7607 36.2754 60.5932 36.5046C61.4256 36.7338 62.2046 37.1252 62.8853 37.6564C63.5659 38.1877 64.1349 38.8482 64.5595 39.6L66.0415 42.234L67.0255 41.682C67.1696 41.6005 67.3285 41.5481 67.4929 41.528C67.6573 41.5078 67.8241 41.5202 67.9837 41.5645C68.1434 41.6088 68.2927 41.6841 68.4232 41.7861C68.5538 41.8881 68.6629 42.0148 68.7445 42.159C68.826 42.3032 68.8784 42.4621 68.8985 42.6265C68.9187 42.7909 68.9063 42.9577 68.862 43.1173C68.8177 43.277 68.7424 43.4263 68.6404 43.5568C68.5384 43.6873 68.4116 43.7965 68.2675 43.878L67.2835 44.436L78.2995 63.978L59.3995 74.676L50.9995 59.802C51.095 60.0749 51.0947 60.3721 50.9988 60.6447C50.9028 60.9174 50.7168 61.1492 50.4715 61.302L50.3875 61.35L49.3435 61.95L57.8215 76.9921C57.9271 77.1947 58.0853 77.3652 58.2796 77.4856C58.4739 77.6059 58.697 77.6717 58.9255 77.676C59.1376 77.6741 59.3452 77.6139 59.5255 77.502L80.7055 65.544C80.8506 65.4623 80.9783 65.3527 81.081 65.2215C81.1838 65.0904 81.2596 64.9402 81.3042 64.7797C81.3488 64.6192 81.3613 64.4514 81.3409 64.286C81.3205 64.1207 81.2677 63.961 81.1855 63.816Z" fill="#343E51"/>
<path d="M68.2678 43.8959C68.559 43.7313 68.7728 43.4576 68.8623 43.1352C68.9517 42.8129 68.9095 42.4682 68.7448 42.1769C68.5801 41.8857 68.3064 41.6719 67.9841 41.5824C67.6617 41.493 67.317 41.5352 67.0258 41.6999L66.0418 42.2519L47.1298 52.9139L46.4098 53.3219C46.117 53.4874 45.9019 53.7625 45.8119 54.0865C45.7219 54.4106 45.7643 54.7571 45.9298 55.0499C46.0953 55.3427 46.3703 55.5578 46.6944 55.6478C47.0184 55.7378 47.365 55.6954 47.6578 55.5299L48.3778 55.1219L67.2838 44.4539L68.2678 43.8959Z" fill="#343E51"/>
<path d="M47.9995 41.0339C48.2097 41.0301 48.4158 40.9745 48.5995 40.8719L55.5355 36.9539C55.8251 36.7855 56.0375 36.5105 56.1272 36.1876C56.2168 35.8648 56.1768 35.5196 56.0155 35.2259L55.5295 34.3559L53.1835 30.1859C53.1025 30.0423 52.9938 29.9162 52.8637 29.815C52.7335 29.7138 52.5845 29.6395 52.4253 29.5965C52.2661 29.5535 52.1 29.5426 51.9366 29.5645C51.7732 29.5864 51.6157 29.6406 51.4735 29.7239L44.5675 33.5999C44.4247 33.6825 44.2996 33.7925 44.1994 33.9235C44.0992 34.0545 44.0258 34.2039 43.9835 34.3633C43.9411 34.5227 43.9306 34.6889 43.9526 34.8524C43.9745 35.0158 44.0285 35.1734 44.1115 35.3159L46.4155 39.4199L46.9435 40.3559C47.0454 40.551 47.1964 40.7161 47.3815 40.835C47.5667 40.9539 47.7797 41.0224 47.9995 41.0339ZM51.5995 32.5259L53.2015 35.3579L48.4795 38.0279L46.8895 35.1959L51.5995 32.5259Z" fill="#343E51"/>
<path d="M75.4318 82.4699C75.4282 82.2599 75.4862 82.0533 75.5987 81.8759C75.7113 81.6985 75.8734 81.558 76.0649 81.4718C76.2565 81.3856 76.4692 81.3575 76.6766 81.3909C76.884 81.4243 77.077 81.5179 77.2318 81.6599L84.7738 77.3999C84.7562 77.3607 84.7362 77.3226 84.7138 77.2859C83.4037 75.0683 81.2758 73.4533 78.7876 72.7879C76.2993 72.1226 73.6494 72.4599 71.4072 73.7276C69.1651 74.9952 67.5098 77.0919 66.7971 79.567C66.0844 82.0421 66.3712 84.698 67.5958 86.9639L67.6618 87.0659L75.4618 82.6679C75.4452 82.6031 75.4351 82.5367 75.4318 82.4699Z" fill="#8FEDDA"/>
<path d="M86.3163 87.0002C86.0593 86.9026 85.7741 86.911 85.5233 87.0235C85.2724 87.136 85.0764 87.3434 84.9783 87.6002C84.9549 87.6584 84.9368 87.7187 84.9243 87.7802C84.4663 89.4205 83.3769 90.8125 81.8948 91.6514C80.4126 92.4903 78.6585 92.7078 77.0163 92.2562C76.7608 92.2072 76.4961 92.2561 76.2749 92.3931C76.0536 92.53 75.8919 92.7451 75.8217 92.9957C75.7515 93.2462 75.778 93.514 75.8959 93.746C76.0138 93.978 76.2145 94.1572 76.4583 94.2482C78.6288 94.8507 80.9498 94.5666 82.9109 93.4584C84.8721 92.3501 86.3128 90.5084 86.9163 88.3382C87.0139 88.0812 87.0055 87.7959 86.893 87.5451C86.7805 87.2943 86.5731 87.0983 86.3163 87.0002Z" fill="#343E51"/>
<path d="M76.3801 89.0402L76.5661 89.0882C77.7683 89.435 79.059 89.2905 80.1547 88.6864C81.2505 88.0823 82.0616 87.0679 82.4101 85.8662C82.4101 85.8662 82.4101 85.8062 82.4101 85.7702C82.4661 85.6415 82.4954 85.5028 82.4962 85.3624C82.4971 85.222 82.4694 85.0829 82.415 84.9536C82.3605 84.8242 82.2804 84.7072 82.1795 84.6097C82.0785 84.5121 81.9588 84.4361 81.8276 84.3861C81.6965 84.3362 81.5565 84.3133 81.4162 84.319C81.276 84.3247 81.1384 84.3588 81.0116 84.4192C80.8849 84.4796 80.7718 84.565 80.679 84.6704C80.5863 84.7758 80.5159 84.8989 80.4721 85.0322C80.4478 85.0922 80.4297 85.1545 80.4181 85.2182C80.2273 85.908 79.7711 86.4941 79.1493 86.8483C78.5275 87.2025 77.7907 87.2959 77.1001 87.1082C76.8423 87.0103 76.5562 87.0189 76.3047 87.132C76.0532 87.2451 75.857 87.4534 75.7591 87.7112C75.6612 87.969 75.6698 88.2551 75.7829 88.5066C75.8959 88.7581 76.1043 88.9543 76.3621 89.0522L76.3801 89.0402Z" fill="#343E51"/>
<path d="M75.4324 82.4697C75.4262 82.5336 75.4262 82.5979 75.4324 82.6617C75.4571 82.9387 75.5877 83.1955 75.7971 83.3786C76.0064 83.5617 76.2783 83.657 76.5561 83.6447C76.834 83.6323 77.0963 83.5132 77.2886 83.3122C77.4808 83.1112 77.5881 82.8438 77.5881 82.5657C77.5881 82.2876 77.4808 82.0202 77.2886 81.8192C77.0963 81.6182 76.834 81.4992 76.5561 81.4868C76.2783 81.4744 76.0064 81.5697 75.7971 81.7528C75.5877 81.9359 75.4571 82.1927 75.4324 82.4697Z" fill="#8FEDDA"/>
<path d="M50.4963 61.3018C50.6396 61.2164 50.7642 61.103 50.8627 60.9684C50.9612 60.8339 51.0316 60.6808 51.0697 60.5184C51.1078 60.356 51.1127 60.1876 51.0843 60.0233C51.0559 59.8589 50.9947 59.702 50.9043 59.5618C50.8837 59.524 50.8574 59.4896 50.8263 59.4598C50.6373 59.2108 50.362 59.0414 50.0546 58.9848C49.7471 58.9282 49.4296 58.9884 49.1643 59.1538L48.1263 59.7538L44.1543 61.9978L45.4023 64.1998L49.3683 61.9498L50.4123 61.3498L50.4963 61.3018Z" fill="#343E51"/>
<path d="M70.506 47.2562C70.2154 47.4223 70.0024 47.6967 69.9136 48.0194C69.8247 48.3421 69.8673 48.6869 70.032 48.9782C70.1445 49.1719 70.3054 49.3329 70.499 49.4454C70.6925 49.558 70.9121 49.6183 71.136 49.6202C71.3694 49.6127 71.5969 49.5445 71.796 49.4222L72.756 48.8822L76.356 46.8662L75.114 44.6642L71.514 46.6862L70.512 47.2502L70.506 47.2562Z" fill="#343E51"/>
<path d="M41.0042 56.4L34.6982 59.958L41.8202 72.564L48.1202 69.006L45.4022 64.194L44.1542 61.98L41.0042 56.4Z" fill="#8FEDDA"/>
<path d="M32.8062 61.0391L26.5059 64.5978L33.6264 77.2038L39.9267 73.645L32.8062 61.0391Z" fill="#8FEDDA"/>
<path d="M24.2945 65.839L17.9941 69.3978L25.1146 82.0038L31.415 78.445L24.2945 65.839Z" fill="#8FEDDA"/>
<path d="M94.8785 25.9631L88.5781 29.5219L95.6986 42.1278L101.999 38.5691L94.8785 25.9631Z" fill="#8FEDDA"/>
<path d="M86.6949 30.5955L80.3945 34.1543L87.515 46.7603L93.8154 43.2015L86.6949 30.5955Z" fill="#8FEDDA"/>
<path d="M78.9959 51.5699L85.3019 48.0119L78.1799 35.4059L71.8799 38.9639L75.0959 44.6639L76.3379 46.8659L78.9959 51.5699Z" fill="#8FEDDA"/>
</svg>
