<svg width="120" height="120" viewBox="0 0 120 120" fill="none" xmlns="http://www.w3.org/2000/svg">
<path d="M71.4355 53.538V61.938H77.7416C78.0476 61.83 78.3415 61.74 78.6655 61.656V53.538H71.4355Z" fill="#8FEEDB"/>
<path d="M84.4915 76.5001L82.8535 76.0201C81.5095 75.6721 81.3715 75.0661 81.3715 74.7361C81.3715 73.9921 81.9715 73.4821 83.1715 73.4821C84.3715 73.4821 84.9715 74.0821 84.9715 74.9041H87.8995C87.8749 73.8994 87.4627 72.9431 86.7493 72.2353C86.0359 71.5274 85.0764 71.1228 84.0715 71.1061V69.1321H82.6135V71.0821C80.2735 71.2981 78.4975 72.7621 78.4975 74.8081C78.4975 75.9481 79.0135 77.5741 82.0495 78.4081L83.7115 78.8281C85.1095 79.2301 85.3735 79.6861 85.3735 80.2501C85.3735 81.0781 84.6775 81.5941 83.3515 81.5941C82.0255 81.5941 81.2935 80.8741 81.2935 80.0701H78.3535C78.3535 82.1581 80.0155 83.6701 82.6135 83.9281V86.0341H84.0715V83.9281C86.2495 83.7301 88.3075 82.5421 88.3075 80.2741C88.3135 79.0861 87.8335 77.4001 84.4915 76.5001Z" fill="#343E51"/>
<path d="M44.5503 53.538H37.3203V61.938H44.5503V53.538Z" fill="#8FEEDB"/>
<path d="M61.6079 53.538H54.3779V61.938H61.6079V53.538Z" fill="#8FEEDB"/>
<path d="M44.5503 69.6179H37.3203V78.0179H44.5503V69.6179Z" fill="#8FEEDB"/>
<path d="M61.6079 69.6179H54.3779V78.0179H61.6079V69.6179Z" fill="#8FEEDB"/>
<path d="M71.4359 33.9659H44.5439V36.8519H71.4359V33.9659Z" fill="#343E51"/>
<path d="M88.8002 62.1419V59.5439V40.0919C88.8258 38.4947 88.2167 36.9525 87.1064 35.8039C85.9961 34.6554 84.4754 33.9943 82.8782 33.9659H78.6782V36.8519H82.8782C83.71 36.8801 84.4967 37.237 85.0659 37.8444C85.635 38.4518 85.94 39.26 85.9142 40.0919V47.1839H28.8001V40.0919C28.7725 39.2656 29.0721 38.4617 29.6339 37.855C30.1956 37.2483 30.9741 36.8878 31.8001 36.8519H37.3201V33.9659H31.8001C31.0086 33.9768 30.227 34.1443 29.5005 34.4586C28.7739 34.7729 28.1168 35.2279 27.5668 35.7974C27.0169 36.3668 26.5851 37.0394 26.2963 37.7765C26.0075 38.5136 25.8674 39.3005 25.8841 40.0919V82.5299C25.8674 83.3214 26.0075 84.1083 26.2963 84.8454C26.5851 85.5825 27.0169 86.2551 27.5668 86.8245C28.1168 87.394 28.7739 87.849 29.5005 88.1633C30.227 88.4776 31.0086 88.645 31.8001 88.6559H67.3201H70.7281C72.402 90.5177 74.4771 91.9747 76.7967 92.9167C79.1164 93.8587 81.6198 94.2611 84.1177 94.0935C86.6157 93.9258 89.0429 93.1926 91.2159 91.9491C93.3888 90.7056 95.2507 88.9845 96.6608 86.9157C98.0708 84.847 98.9922 82.4848 99.3552 80.0076C99.7182 77.5305 99.5134 75.0032 98.7562 72.6169C97.999 70.2305 96.7093 68.0475 94.9845 66.2328C93.2597 64.4181 91.145 63.0193 88.8002 62.1419ZM67.2841 85.7519H31.8001C30.9773 85.716 30.2016 85.3581 29.6403 84.7553C29.0791 84.1525 28.7773 83.3532 28.8001 82.5299V50.0699H85.9442V59.5739V61.3319C83.5266 60.8921 81.041 61.0029 78.6721 61.6559C78.3601 61.7399 78.0722 61.8299 77.7482 61.9379C76.8042 62.2508 75.8921 62.6526 75.0242 63.1379C74.7602 63.2819 74.4242 63.4619 74.1422 63.6599C73.3611 64.1554 72.6243 64.7175 71.9402 65.3399C71.3961 65.8298 70.8868 66.3571 70.4162 66.9179C68.8808 68.7237 67.7495 70.837 67.0982 73.1159C67.0562 73.2539 67.0142 73.4039 66.9841 73.5419C66.4744 75.5461 66.3442 77.6279 66.6002 79.6799V79.8599C66.8829 81.9346 67.5633 83.9352 68.6041 85.7519H67.2841ZM82.9741 91.2299C79.7389 91.2129 76.6139 90.0528 74.1512 87.9547C71.6885 85.8565 70.0468 82.9554 69.5162 79.7639V79.6139C69.4128 78.9449 69.3607 78.2689 69.3601 77.5919C69.3607 76.2815 69.5507 74.978 69.9242 73.7219C69.9628 73.5737 70.0089 73.4275 70.0621 73.2839C70.5899 71.7014 71.4033 70.229 72.4622 68.9399C73.089 68.1848 73.7928 67.4971 74.5621 66.8879C75.7978 65.9109 77.1949 65.1575 78.6901 64.6619C79.3754 64.4331 80.0775 64.2585 80.7901 64.1399C81.52 64.0195 82.2585 63.9593 82.9982 63.9599C84.8128 63.9219 86.6168 64.2464 88.3044 64.9145C89.992 65.5827 91.5292 66.5809 92.826 67.8508C94.1229 69.1207 95.1532 70.6367 95.8565 72.3099C96.5599 73.9831 96.9222 75.7799 96.9222 77.5949C96.9222 79.41 96.5599 81.2068 95.8565 82.88C95.1532 84.5532 94.1229 86.0692 92.826 87.3391C91.5292 88.609 89.992 89.6072 88.3044 90.2754C86.6168 90.9435 84.8128 91.268 82.9982 91.2299H82.9741Z" fill="#343E51"/>
<path d="M37.3203 40.764H44.5443V36.852V33.966V28.902H37.3203V33.966V36.852V40.764Z" fill="#8FEEDB"/>
<path d="M71.4355 40.764H78.6655V36.852V33.966V28.902H71.4355V33.966V36.852V40.764Z" fill="#8FEEDB"/>
</svg>
