<svg width="66" height="76" viewBox="0 0 66 76" fill="none" xmlns="http://www.w3.org/2000/svg">
<path d="M52.4609 23.1615C52.4256 22.545 52.1546 21.9655 51.7041 21.5431C51.2536 21.1207 50.658 20.8875 50.0404 20.8919H42.5624C42.3884 20.8919 42.2216 20.8228 42.0985 20.6998C41.9755 20.5768 41.9064 20.4099 41.9064 20.2359V18.1172C41.9064 16.8446 41.9064 15.5917 41.9064 14.3519C41.7752 5.96871 33.2018 1.0621 30.4926 0.648842C29.4497 0.491411 28.2164 0.445492 28.2033 0.445492C28.1902 0.445492 27.8885 0.445492 27.4359 0.445492C26.7284 0.442564 26.0212 0.475406 25.3171 0.543888C22.445 0.998263 19.7819 2.32409 17.6882 4.34192C15.5689 6.394 14.1212 9.0401 13.536 11.9314C13.2595 13.7388 13.1672 15.5696 13.2605 17.3956C13.2605 18.3074 13.2605 19.1798 13.2605 19.967V20.8657L4.52957 20.9181C4.08435 20.9223 3.65732 21.0953 3.33467 21.4021C3.01203 21.7089 2.81783 22.1267 2.79126 22.5712L2.4108 29.5178L0.00341507 73.0411C-0.0135428 73.3503 0.0327806 73.6598 0.139553 73.9505C0.246325 74.2412 0.411299 74.507 0.624377 74.7318C0.837456 74.9565 1.09416 75.1354 1.37877 75.2575C1.66338 75.3796 1.96991 75.4424 2.27961 75.4419H40.3256V74.2284C37.0761 73.9949 33.8749 73.3105 30.8141 72.1949H5.65127C5.34099 72.1954 5.03388 72.1325 4.7488 72.01C4.46373 71.8875 4.20671 71.708 3.99353 71.4825C3.78036 71.257 3.61554 70.9904 3.50918 70.6989C3.40283 70.4074 3.35719 70.0973 3.37507 69.7875L5.79558 26.3233C5.8289 25.7443 6.08136 25.1996 6.50169 24.8C6.92202 24.4004 7.4787 24.1758 8.05866 24.1717L46.9508 24.2111C48.5054 24.2111 49.2204 24.749 49.3123 26.3036L50.2175 39.4819H53.458L52.4609 23.1615ZM38.6856 18.2156V20.1835C38.6856 20.3574 38.6165 20.5243 38.4935 20.6473C38.3705 20.7703 38.2037 20.8394 38.0297 20.8394H17.1962C17.0223 20.8394 16.8554 20.7703 16.7324 20.6473C16.6094 20.5243 16.5403 20.3574 16.5403 20.1835L16.5075 17.0676C16.4616 14.7062 16.4156 12.2529 17.6029 9.85202C18.5259 7.97797 19.951 6.39695 21.7196 5.28509C23.4881 4.17324 25.5306 3.57422 27.6195 3.55476C28.3893 3.55585 29.1568 3.63942 29.9088 3.80403C32.3616 4.33973 34.5619 5.68745 36.1535 7.62907C37.7451 9.57069 38.635 11.9926 38.6791 14.5028C38.6988 15.7491 38.6922 16.9758 38.6856 18.2156Z" fill="#343E51"/>
<path d="M45.7046 69.7611L54.9668 56.2614C58.4566 51.604 57.9318 43.9358 53.8845 39.8623C51.753 37.7087 48.8581 36.4829 45.8282 36.451C42.7984 36.419 39.8782 37.5836 37.7019 39.6917L37.5247 39.8623C33.484 43.9424 32.9855 51.6106 36.4358 56.2614L45.7046 69.7611ZM45.7046 41.7711C47.169 41.7641 48.5763 42.3383 49.6179 43.3676C50.6594 44.3968 51.2502 45.7972 51.2606 47.2616C51.2684 48.3605 50.9498 49.437 50.345 50.3546C49.7403 51.2723 48.8767 51.9897 47.8638 52.4159C46.8509 52.8422 45.7342 52.9581 44.6553 52.749C43.5764 52.5398 42.5839 52.0151 41.8036 51.2412C41.0233 50.4674 40.4903 49.4792 40.2722 48.4021C40.0541 47.325 40.1608 46.2074 40.5786 45.191C40.9965 44.1745 41.7067 43.305 42.6192 42.6927C43.5318 42.0804 44.6056 41.7528 45.7046 41.7515V41.7711Z" fill="#8FEEDB"/>
<path d="M45.7109 75.9868C43.8348 75.9868 41.9719 75.9015 40.1811 75.7375C36.7866 75.4908 33.4435 74.7687 30.2498 73.5925C26.2615 71.9789 25.4219 70.0044 25.4219 68.6335C25.4219 66.9673 26.6288 64.6255 32.3948 62.9331C32.7739 62.8345 33.1765 62.8872 33.5175 63.0801C33.8584 63.273 34.111 63.5909 34.2217 63.9666C34.3325 64.3424 34.2928 64.7465 34.111 65.0935C33.9292 65.4405 33.6195 65.7031 33.2475 65.8259C29.7447 66.8558 28.4393 68.0956 28.4393 68.6335C28.4393 68.968 29.0559 69.8535 31.378 70.7916C34.3012 71.8634 37.3585 72.5256 40.4631 72.7595C42.1621 72.9235 43.9266 73.0022 45.7109 73.0022C57.105 73.0022 62.9824 69.9585 62.9824 68.6662C62.9824 68.3317 62.3724 67.4527 60.0896 66.5212C59.9061 66.4463 59.7392 66.336 59.5984 66.1965C59.4575 66.057 59.3455 65.8912 59.2688 65.7085C59.192 65.5257 59.152 65.3297 59.151 65.1315C59.1501 64.9333 59.1881 64.7368 59.2631 64.5534C59.338 64.3699 59.4484 64.2029 59.5878 64.0621C59.7273 63.9213 59.8931 63.8093 60.0759 63.7325C60.2586 63.6558 60.4547 63.6158 60.6529 63.6148C60.851 63.6138 61.0475 63.6519 61.231 63.7268C65.1668 65.3339 65.9998 67.3018 65.9998 68.6662C65.9998 73.6844 55.4782 75.9868 45.7109 75.9868Z" fill="#353E4F"/>
<path d="M22.3917 30.3705H11.1025V38.7209H22.3917V30.3705Z" fill="#8FEEDB"/>
</svg>
