<svg width="82" height="53" viewBox="0 0 82 53" fill="none" xmlns="http://www.w3.org/2000/svg">
<path d="M71.1675 10.5201H37.4355V17.9901H71.1675V10.5201Z" fill="#8FEEDB"/>
<path d="M53.18 31.3041C53.6461 30.3445 54.2133 29.4373 54.872 28.5981L55.076 28.3461C55.25 28.1301 55.43 27.9201 55.616 27.7101C55.802 27.5001 56.12 27.1641 56.354 26.9481L56.6 26.7081C56.8262 26.4945 57.0646 26.2942 57.314 26.1081C57.584 25.8861 57.836 25.6941 58.076 25.5081C58.316 25.3221 58.676 25.0941 59.018 24.9081H37.418V32.3781H52.7C52.7166 32.3411 52.7306 32.303 52.742 32.2641C52.886 31.9461 53.03 31.6221 53.18 31.3041Z" fill="#8FEEDB"/>
<path d="M51.8835 40.2139C51.8415 39.9439 51.8055 39.6739 51.7815 39.4099L52.0695 39.3019L51.7755 39.3499C51.7755 39.3499 51.7755 39.3079 51.7755 39.2899H37.4355V46.7599H54.6615C54.4515 46.4839 54.2415 46.1959 54.0615 45.8959C52.9565 44.1699 52.2154 42.2364 51.8835 40.2139Z" fill="#8FEEDB"/>
<path d="M81.7101 39.9199C81.6092 39.7649 81.478 39.6318 81.3244 39.5287C81.1707 39.4256 80.9979 39.3546 80.8161 39.3199C80.7165 39.3084 80.6158 39.3084 80.5161 39.3199C80.2441 39.3186 79.9775 39.3957 79.7481 39.5419C79.5869 39.6398 79.4473 39.7696 79.3379 39.9233C79.2286 40.077 79.1517 40.2514 79.1121 40.4359C78.6121 42.7064 77.4758 44.7876 75.8361 46.4359C74.1772 48.0925 72.0854 49.2486 69.8001 49.7719C68.8703 49.9924 67.9178 50.1032 66.9621 50.1019C66.2931 50.1009 65.6252 50.0488 64.9641 49.9459C63.6084 49.7218 62.2989 49.2758 61.0881 48.6259C60.8961 48.5299 60.7161 48.4219 60.4881 48.2959L60.4101 48.2539L60.1101 48.0559C59.8821 47.9119 59.6481 47.7499 59.4261 47.5819L59.3721 47.5399C59.2655 47.4638 59.1634 47.3817 59.0661 47.2939L58.7961 47.0719L58.7481 47.0359L58.6641 46.9519C58.5109 46.8239 58.3647 46.6877 58.2261 46.5439C57.9172 46.2461 57.6248 45.9316 57.3501 45.6019L56.9481 45.0919C56.8221 44.9119 56.6961 44.7379 56.5761 44.5579C56.2199 43.9966 55.9069 43.4089 55.6401 42.7999C55.5621 42.6259 55.4961 42.4639 55.4301 42.2899C55.0952 41.4581 54.8576 40.5903 54.7221 39.7039V39.6019C54.7221 39.4879 54.7221 39.3799 54.6741 39.2479C54.6741 39.2479 54.6741 39.1819 54.6741 39.1519V39.0799V39.0439C54.6741 38.8519 54.6321 38.6599 54.6261 38.4439C54.6201 38.2279 54.6261 38.0059 54.6261 37.7899C54.6261 37.5739 54.6261 37.3639 54.6261 37.1419C54.6261 36.9199 54.6621 36.7159 54.6861 36.4939C54.7599 35.7518 54.9045 35.0184 55.1181 34.3039C55.3057 33.686 55.5425 33.084 55.8261 32.5039C55.8724 32.403 55.9245 32.3048 55.9821 32.2099C56.0601 32.0477 56.1462 31.8894 56.2401 31.7359C56.3241 31.5799 56.4201 31.4239 56.5281 31.2559C56.6198 31.1024 56.72 30.9542 56.8281 30.8119C56.9301 30.6619 57.0381 30.5119 57.1521 30.3679C57.2661 30.2239 57.4041 30.0499 57.5361 29.8939L57.7221 29.6779L57.8001 29.5999L57.8601 29.5399C57.9313 29.4555 58.0075 29.3753 58.0881 29.2999C58.2141 29.1679 58.3461 29.0359 58.4781 28.9099L58.5261 28.8679C58.9265 28.483 59.3579 28.1318 59.8161 27.8179C60.8249 27.0929 61.9375 26.5245 63.1161 26.1319C64.3918 25.7105 65.7267 25.4958 67.0701 25.4959C67.5271 25.4958 67.9837 25.5198 68.4381 25.5679C70.224 25.7702 71.9452 26.3556 73.4841 27.2839C73.7075 27.4167 73.9623 27.4872 74.2221 27.4879C74.469 27.491 74.7124 27.4295 74.9281 27.3095C75.1439 27.1896 75.3245 27.0152 75.4521 26.8039C75.6432 26.4849 75.7034 26.1043 75.6201 25.7419C75.5806 25.5702 75.5094 25.4074 75.4101 25.2619L75.3741 25.2079L75.3201 25.1719C74.506 24.6515 73.6465 24.2057 72.7521 23.8399C70.9186 23.097 68.9585 22.716 66.9801 22.7179C66.3787 22.7185 65.7778 22.7526 65.1801 22.8199C63.1701 23.0528 61.2264 23.683 59.4621 24.6739L59.0181 24.9379C58.7001 25.1299 58.3821 25.3339 58.0761 25.5379C57.7701 25.7419 57.5841 25.8979 57.3141 26.1379C57.0648 26.324 56.8264 26.5243 56.6001 26.7379L56.3541 26.9779C56.1201 27.1939 55.8801 27.4459 55.6161 27.7399C55.3521 28.0339 55.2501 28.1599 55.0761 28.3759L54.8721 28.6279C54.2135 29.4672 53.6463 30.3743 53.1801 31.3339C53.0301 31.6519 52.8861 31.9759 52.7601 32.2939C52.7488 32.3328 52.7348 32.3709 52.7181 32.4079C51.9341 34.4237 51.5924 36.5845 51.7161 38.7439C51.7161 38.9299 51.7161 39.1159 51.7641 39.3439C51.7641 39.3439 51.7641 39.3859 51.7641 39.4039L52.0581 39.3559L51.7701 39.4639C51.7701 39.7279 51.8301 39.9979 51.8721 40.2679C52.2021 42.2899 52.9412 44.2234 54.0441 45.9499C54.2301 46.2499 54.4401 46.5499 54.6441 46.8139C54.6921 46.8739 54.7341 46.9399 54.7821 46.9939C55.9104 48.4833 57.3087 49.7473 58.9041 50.7199L59.5581 51.1039L59.6241 51.1699H59.6781L60.0201 51.3439C60.4771 51.5687 60.9458 51.769 61.4241 51.9439C61.6581 52.0339 61.8921 52.1119 62.1201 52.1899C63.6682 52.7046 65.2887 52.968 66.9201 52.9699H66.9801C70.4695 52.9645 73.8538 51.7757 76.5801 49.5979C79.285 47.4237 81.165 44.3898 81.9081 40.9999C81.9472 40.8186 81.9499 40.6313 81.9159 40.449C81.8819 40.2667 81.8119 40.0929 81.7101 39.9379V39.9199Z" fill="#353E50"/>
<path d="M62.0481 35.6301C61.9079 35.5059 61.7449 35.4101 61.5681 35.3481C61.4267 35.3023 61.2787 35.28 61.1301 35.2821H61.0161C60.8309 35.2993 60.6511 35.3544 60.4881 35.4441C60.3223 35.5275 60.1769 35.6463 60.0621 35.7921C59.9406 35.9358 59.8507 36.1034 59.7981 36.2841C59.7375 36.4614 59.715 36.6495 59.7321 36.8361C59.7451 37.0244 59.7962 37.2081 59.8821 37.3761C59.9645 37.5459 60.0809 37.697 60.2241 37.8201L66.3441 43.1601C66.5956 43.3833 66.9199 43.5071 67.2561 43.5081C67.6172 43.5058 67.9633 43.3639 68.2221 43.1121L78.9381 32.6841C79.075 32.5562 79.1834 32.4008 79.2561 32.2281C79.332 32.0559 79.3728 31.8703 79.3761 31.6821C79.3815 31.4965 79.353 31.3115 79.2921 31.1361C79.2283 30.9589 79.1304 30.7958 79.0041 30.6561C78.8758 30.5207 78.7231 30.4108 78.5541 30.3321C78.3668 30.243 78.1615 30.1978 77.9541 30.2001C77.7834 30.1995 77.6143 30.2321 77.4561 30.2961C77.2814 30.3635 77.1222 30.4655 76.9881 30.5961L67.1961 40.1361L62.0481 35.6301Z" fill="#353E50"/>
<path d="M21.9859 18.944L20.8579 18.47L21.9799 17.39C22.8957 16.5072 23.6235 15.4483 24.1194 14.2769C24.6154 13.1056 24.8693 11.846 24.8659 10.574C24.8659 7.94837 23.8229 5.43026 21.9662 3.57365C20.1096 1.71704 17.5915 0.674011 14.9659 0.674011C12.3402 0.674011 9.82214 1.71704 7.96553 3.57365C6.10892 5.43026 5.06588 7.94837 5.06588 10.574C5.07594 11.9162 5.36735 13.2414 5.92129 14.464C6.47524 15.6866 7.27941 16.7795 8.28188 17.672L9.22388 18.512L8.05988 19.01C5.82381 19.9378 3.90656 21.4971 2.54261 23.4972C1.17865 25.4973 0.427106 27.8516 0.379883 30.272V51.272C0.413214 51.642 0.58377 51.9862 0.858015 52.2369C1.13226 52.4875 1.49035 52.6265 1.86188 52.6265C2.23342 52.6265 2.59151 52.4875 2.86575 52.2369C3.14 51.9862 3.31055 51.642 3.34388 51.272V30.272C3.37227 28.2972 4.00679 26.3788 5.16153 24.7766C6.31627 23.1743 7.93545 21.9656 9.79988 21.314L15.0619 19.358L17.0899 20.114L20.3359 21.314C22.1957 21.9709 23.8091 23.1827 24.9582 24.7857C26.1074 26.3887 26.7369 28.3058 26.7619 30.278V51.278C26.776 51.6563 26.939 52.0136 27.2155 52.2721C27.492 52.5307 27.8595 52.6694 28.2379 52.658H28.3099C28.6893 52.671 29.0583 52.533 29.3361 52.2743C29.6139 52.0156 29.7778 51.6574 29.7919 51.278V30.278C29.7545 27.8293 28.9933 25.4465 27.6042 23.4296C26.2151 21.4127 24.2603 19.852 21.9859 18.944ZM19.8859 15.398C19.1396 16.1264 18.2366 16.6744 17.2459 17C16.5173 17.2468 15.7531 17.3725 14.9839 17.372C14.2661 17.371 13.5523 17.2639 12.8659 17.054C11.8205 16.7327 10.8678 16.1647 10.0879 15.398C9.44334 14.7757 8.93072 14.03 8.58061 13.2053C8.2305 12.3807 8.05006 11.4939 8.05006 10.598C8.05006 9.7021 8.2305 8.81535 8.58061 7.99068C8.93072 7.166 9.44334 6.42029 10.0879 5.79801C11.4022 4.5228 13.1616 3.80959 14.9929 3.80959C16.8242 3.80959 18.5835 4.5228 19.8979 5.79801C20.538 6.42286 21.0466 7.16941 21.3939 7.99373C21.7411 8.81806 21.92 9.70352 21.92 10.598C21.92 11.4925 21.7411 12.378 21.3939 13.2023C21.0466 14.0266 20.538 14.7732 19.8979 15.398H19.8859Z" fill="#353E50"/>
</svg>
