<svg width="58" height="82" viewBox="0 0 58 82" fill="none" xmlns="http://www.w3.org/2000/svg">
<path d="M20.4282 54.5082C19.6141 54.3352 18.7851 54.2417 17.9529 54.2289H17.5721C16.5897 54.2303 15.611 54.1088 14.6588 53.8672C14.3605 53.7973 14.0622 53.7085 13.7766 53.6196L13.7004 53.8672L6.51562 77.0273L15.9218 71.6577L20.6059 81.4828L27.8922 57.999V57.8975C25.9113 57.5878 24.0381 56.7918 22.4402 55.5808C21.8084 55.1547 21.1341 54.7953 20.4282 54.5082Z" fill="#8FEEDB"/>
<path d="M40.0273 54.2161C39.1863 54.2289 38.3487 54.3246 37.5265 54.5017C36.8156 54.7995 36.1371 55.1696 35.5019 55.6061C34.1679 56.6193 32.6375 57.3434 31.0082 57.7323C30.7099 57.8022 30.3735 57.8656 30.1006 57.9164L37.4123 81.4827L42.1091 71.6576L51.528 77.0271L44.2543 53.5941C43.0273 54.0088 41.7414 54.2231 40.4462 54.2288L40.0273 54.2161Z" fill="#8FEEDB"/>
<path d="M56.8596 29.0247C56.9211 28.2405 57.0701 27.4655 57.3039 26.7144C58.1044 24.5657 58.2175 22.2214 57.6276 20.0057C56.7177 17.8298 55.1683 15.9816 53.1847 14.7059C52.5788 14.2645 52.0252 13.7556 51.5345 13.189C51.1227 12.5437 50.7902 11.8511 50.5443 11.1262C49.8547 8.92415 48.5218 6.97889 46.7171 5.54091C44.8252 4.41105 42.6626 3.81449 40.459 3.81453H40.1036C39.2749 3.81158 38.4492 3.71793 37.6409 3.53526C36.9229 3.23724 36.2379 2.86497 35.5972 2.42454C33.703 0.997069 31.433 0.154338 29.0662 0C26.7025 0.15516 24.4353 0.995453 22.5415 2.4182C21.9036 2.85592 21.2231 3.22805 20.5104 3.52892C19.6904 3.71889 18.8515 3.81471 18.0097 3.81453H17.6734C15.463 3.80881 13.2928 4.40566 11.3962 5.54091C9.58716 6.98433 8.25917 8.94312 7.58801 11.158C7.34042 11.8771 7.0103 12.565 6.60423 13.2081C6.07945 13.7814 5.49424 14.2964 4.85881 14.744C2.85524 16.0118 1.28897 17.8638 0.371502 20.0501C-0.220358 22.2665 -0.102716 24.6127 0.707891 26.7588C0.94321 27.495 1.09647 28.2549 1.16487 29.0247C1.09967 29.7888 0.946326 30.5427 0.707891 31.2715C-0.0937517 33.4268 -0.204665 35.7782 0.390542 37.9993C1.29597 40.1746 2.84663 42.0198 4.83342 43.2864C5.44754 43.7341 6.01526 44.2423 6.52806 44.8033C6.93275 45.457 7.26477 46.1529 7.5182 46.8787C8.20755 49.0965 9.5449 51.0573 11.3581 52.5085C12.1207 52.9668 12.9317 53.3393 13.7763 53.6192C14.0619 53.7081 14.3602 53.7969 14.6585 53.8668C15.6107 54.1084 16.5894 54.2299 17.5718 54.2285H17.9653C18.7975 54.2413 19.6265 54.3348 20.4406 54.5078C21.1545 54.8037 21.8352 55.1739 22.4717 55.6122C24.0696 56.8231 25.9428 57.6191 27.9237 57.9288C28.2347 57.9733 28.5584 58.0113 28.8504 58.0304H29.0027C29.3645 58.0304 29.7263 57.9606 30.0817 57.9034C30.4371 57.8463 30.7164 57.7892 30.9893 57.7194C32.6186 57.3304 34.149 56.6063 35.483 55.5931C36.1182 55.1566 36.7967 54.7865 37.5076 54.4888C38.3298 54.3116 39.1674 54.2159 40.0084 54.2032H40.3955C41.6908 54.1975 42.9766 53.9832 44.2037 53.5685C44.4893 53.4733 44.7749 53.3654 45.0605 53.2511C45.596 53.0285 46.1137 52.7654 46.6092 52.4641C48.4137 51.0138 49.7405 49.0546 50.4174 46.8407C50.668 46.1219 50.9958 45.4324 51.3948 44.7842C51.9146 44.2119 52.4981 43.7009 53.1339 43.261C55.1282 42.0068 56.6917 40.1732 57.6149 38.0057C58.2067 35.7892 58.0891 33.443 57.2785 31.2969C57.0592 30.5564 56.9188 29.7948 56.8596 29.0247ZM54.8857 37.1108C54.1511 38.7326 52.9516 40.1 51.4393 41.0395C50.5953 41.6373 49.826 42.3341 49.148 43.115C48.5634 43.9614 48.0839 44.8757 47.7199 45.8378C47.2408 47.5094 46.2753 49.0007 44.9463 50.1221C44.7115 50.249 44.4766 50.3696 44.2354 50.4775C43.9942 50.5854 43.6706 50.7123 43.3786 50.8139C42.3894 51.1506 41.3516 51.3221 40.3067 51.3216H39.8687C38.7969 51.3472 37.7318 51.4985 36.6952 51.7723C35.7347 52.1398 34.8208 52.6191 33.9724 53.2003C32.8523 54.0669 31.5502 54.668 30.1642 54.9584L29.7961 55.0283C29.6178 55.0634 29.4377 55.0888 29.2566 55.1044H29.0408H28.8123C28.7289 55.0979 28.6462 55.0852 28.5648 55.0663C26.9325 54.848 25.3856 54.2069 24.0774 53.2067C23.2287 52.6239 22.3123 52.1464 21.3482 51.785C20.2979 51.5206 19.2198 51.3822 18.1367 51.3724H17.7051C16.974 51.3744 16.2453 51.2892 15.5344 51.1185C14.6776 50.9225 13.8528 50.6062 13.0845 50.1792C11.7505 49.055 10.7734 47.5661 10.2728 45.895C9.93295 44.9201 9.47465 43.9907 8.90818 43.1277C8.22955 42.3413 7.45805 41.6401 6.61058 41.0395C5.11403 40.1054 3.92454 38.7526 3.18956 37.1488C2.80055 35.4547 2.94238 33.682 3.59577 32.0713C3.90814 31.0832 4.09369 30.0595 4.14795 29.0247C4.08471 27.9754 3.88632 26.9386 3.55768 25.9401C2.93839 24.3605 2.80793 22.6313 3.18321 20.9767C3.91754 19.36 5.11466 17.9972 6.62327 17.0607C7.4738 16.4663 8.24578 15.7668 8.92088 14.9789C9.48681 14.1106 9.94102 13.1744 10.2728 12.1925C10.7481 10.5228 11.7145 9.03455 13.0464 7.92102C14.4648 7.12989 16.062 6.71476 17.686 6.7151H18.1367C19.2072 6.70461 20.2726 6.56611 21.3102 6.30255C22.2832 5.95424 23.2086 5.48512 24.0648 4.90621C25.4956 3.81388 27.2089 3.15324 29.0027 3.00212C30.8158 3.17733 32.5406 3.86901 33.9724 4.99507C34.8203 5.58299 35.7395 6.06073 36.7079 6.41679C37.7598 6.68483 38.8404 6.82337 39.9258 6.82934H40.3828C41.991 6.831 43.5723 7.24161 44.978 8.02257C46.3152 9.14819 47.2873 10.6461 47.7707 12.3258C48.1107 13.3 48.5758 14.226 49.1543 15.0804C49.8247 15.867 50.595 16.5626 51.4456 17.1495C52.9444 18.0874 54.1376 19.4416 54.8793 21.0466C55.2562 22.71 55.1235 24.4484 54.4985 26.0353C54.1702 27.038 53.9739 28.0792 53.9146 29.1326C53.9742 30.1845 54.1726 31.2238 54.5048 32.2236C55.1117 33.7859 55.2442 35.4925 54.8857 37.1298V37.1108Z" fill="#353E50"/>
<path d="M45.1815 31.0683C44.8433 30.9943 44.4895 31.0568 44.1972 31.2422C43.9048 31.4276 43.6974 31.7209 43.6201 32.0584C43.0272 34.7665 41.6755 37.2498 39.7231 39.2178C37.3728 41.5938 34.287 43.1037 30.9687 43.5014C27.6504 43.899 24.2952 43.161 21.4501 41.4075C19.6325 40.2972 18.0799 38.8025 16.9013 37.0285C15.7226 35.2544 14.9464 33.2439 14.6271 31.1381C14.316 29.0369 14.4709 26.893 15.0808 24.8584C15.6906 22.8237 16.7405 20.9481 18.1561 19.3645C19.5777 17.7687 21.3299 16.5017 23.2908 15.6515C26.249 14.3684 29.5446 14.0839 32.679 14.8409C35.8133 15.5978 38.6158 17.3551 40.6624 19.8468C40.8805 20.1144 41.1951 20.2854 41.5383 20.3229C41.8819 20.3574 42.2255 20.2573 42.4967 20.0436C42.6322 19.9379 42.7448 19.8057 42.8278 19.6551C42.9107 19.5046 42.9621 19.3388 42.9791 19.1677C42.9971 18.999 42.9811 18.8284 42.932 18.6659C42.883 18.5035 42.8018 18.3526 42.6935 18.222C40.8447 15.9486 38.4523 14.1782 35.7378 13.0746C33.0233 11.9711 30.0743 11.57 27.1637 11.9085C24.253 12.247 21.4748 13.3142 19.086 15.0113C16.6972 16.7084 14.7751 18.9806 13.4974 21.6176C12.2355 24.2368 11.6651 27.1354 11.8406 30.0373C12.0162 32.9393 12.9318 35.748 14.5002 38.1959C16.072 40.6573 18.2427 42.6795 20.8091 44.0732C23.8386 45.7134 27.2841 46.425 30.7155 46.1191C34.1469 45.8132 37.4123 44.5034 40.1039 42.3532C43.1792 39.8924 45.313 36.4474 46.1462 32.5979C46.1846 32.4341 46.19 32.2642 46.1622 32.0983C46.1343 31.9323 46.0737 31.7735 45.984 31.6312C45.8942 31.4889 45.777 31.3658 45.6392 31.2692C45.5015 31.1725 45.3459 31.1042 45.1815 31.0683Z" fill="#353E50"/>
<path d="M42.5349 23.3505L30.958 34.6355L24.7126 29.1961C24.5866 29.0824 24.4371 28.9979 24.2747 28.9486C24.148 28.9054 24.015 28.8839 23.8812 28.8851H23.7796C23.6107 28.901 23.4466 28.9507 23.2972 29.0311C23.1484 29.1101 23.0168 29.218 22.9101 29.3484C22.802 29.4831 22.7182 29.6356 22.6625 29.7991C22.6119 29.9655 22.5926 30.1398 22.6054 30.3132C22.6351 30.6601 22.7964 30.9825 23.056 31.2144L30.152 37.4091C30.3817 37.6117 30.6771 37.7245 30.9834 37.7264C31.3111 37.7234 31.625 37.5938 31.8593 37.3647L44.2867 25.3054C44.4106 25.1863 44.5098 25.044 44.5786 24.8865C44.6486 24.7283 44.6874 24.558 44.6929 24.3851C44.6939 24.2124 44.666 24.0408 44.6104 23.8773C44.5477 23.7188 44.4575 23.5727 44.3438 23.4458C44.2303 23.3179 44.0921 23.2143 43.9376 23.1411C43.7715 23.0677 43.5923 23.0288 43.4108 23.0269C43.2549 23.0284 43.1004 23.0563 42.9538 23.1094C42.8005 23.1633 42.6585 23.2451 42.5349 23.3505Z" fill="#353E50"/>
</svg>
